<?xml version="1.0" encoding="UTF-8"?>
<svg id="Layer_1" data-name="Layer 1" xmlns="http://www.w3.org/2000/svg" viewBox="0 0 3061.42 3061.42">
  <defs>
    <style>
      .cls-1 {
        stroke-width: 45px;
      }

      .cls-1, .cls-2 {
        fill: none;
        stroke: #1d1d1b;
        stroke-miterlimit: 10;
      }

      .cls-2 {
        stroke-width: 40px;
      }

      .cls-3 {
        fill: #1d1d1b;
        font-family: KronaOne-Regular, 'Krona One';
        font-size: 279.44px;
      }
    </style>
  </defs>
  <g>
    <path class="cls-2" d="M479.49,201.39c339.22-340.8,923.52-93.79,1180.77,90.83,187.99,134.91,462.37,423.83,384.28,649.78-17.1,49.47-66.65,140.94-342.36,244.54-329.49,123.81-957.26,359.7-1264.62,0-215.72-252.46-213.76-728.27,41.92-985.14Z"/>
    <path class="cls-2" d="M1267.3,2076.56c2.69-45.17,19.49-241.37,177.78-397.18,147.34-145.03,423.27-260.98,642.59-133.88,182.89,105.99,215.77,316.89,217.92,332.23,26.53,190-80.92,332.32-165.36,444.15-92.73,122.81-302.36,400.45-542.29,348.61-225.43-48.71-344.6-359.51-330.63-593.93Z"/>
    <path class="cls-2" d="M1787.94,1347.41c197.27-236.71,451.36-329.86,596.81-367.69,121.24-31.53,331.29-86.15,391.41,0,46.38,66.48-18.99,184.52-71.17,278.73-173.96,314.1-454.21,437.25-646.8,521.88-92.5,40.65-166.57,63.39-242.76,35.58-78.3-28.58-139.97-103.66-154.19-183.84-19-107.16,51.82-194.79,126.71-284.66Z"/>
    <path class="cls-2" d="M1787.94,291.79c116.33-65.4,270.77-7.29,353.66,47.44,187.59,123.87,223.31,372.12,201.64,533.74-40.65,303.05-308.14,488.26-498.16,533.74-61.9,14.82-88.93,8.43-106.02,1.27-148.7-62.3-119.15-423.43-102.74-623.97,22.39-273.66,34.91-426.61,151.63-492.23Z"/>
    <path class="cls-2" d="M1068.21,1276.2c3.24-6.07,82.62-149.79,217.33-153.94,148.03-4.57,249.43,162.89,285.25,258.55,69.14,184.64,20.8,440.46-113.2,488.53-74.45,26.71-152.85-18.78-191.41-41.15-176.64-102.5-296.71-366.94-197.98-551.99Z"/>
    <path class="cls-1" d="M2397.81,2159.88c34.28-1.59,62.45,63.2,70.69,87.32,30.78,90.08-26.84,167.74-35.34,178.8-29.75,38.72-93.02,92.22-123.47,74.85-59.86-34.15,15.09-337.59,88.12-340.97Z"/>
  </g>
  <text class="cls-3" transform="translate(1099.82 3040.26)"><tspan x="0" y="0">AMANI</tspan></text>
</svg>